<svg xmlns="http://www.w3.org/2000/svg" width="31.124998092651367" height="31.875"><rect id="backgroundrect" width="100%" height="100%" x="0" y="0" fill="none" stroke="none"/>

 <g style="">
  <title>background</title>
  <rect fill="none" id="canvas_background" height="602" width="802" y="-1" x="-1"/>
 </g>
 <g style="" class="currentLayer">
  <title>Layer 1</title>
  <rect id="svg_4" fill="#313131" rx="13" height="26" width="26" y="3.0625" x="2.96875" class=""/>
  <path id="svg_5" fill="white" d="m17.398650000000004,18.0303 c1.3621,-0.5621 2.3201,-1.903 2.3201,-3.4678 c0,-2.0711 -1.6790000000000003,-3.75 -3.7499000000000002,-3.75 c-2.0711,0 -3.75,1.6789 -3.75,3.75 c0,1.5647000000000002 0.9584,2.9056 2.3201,3.4677 c-1.3946,0.23220000000000002 -2.6776,0.7982 -3.7619000000000002,1.6129000000000002 l1.3816000000000002,1.8388 c1.0613,-0.7973 2.3788,-1.2694 3.81,-1.2694 c1.4311,0 2.7491000000000003,0.4721 3.8101000000000003,1.2694 l1.381,-1.8388 c-1.084,-0.8146000000000001 -2.367,-1.3806 -3.7611,-1.6128 z" clip-rule="evenodd" fill-rule="evenodd" class=""/>
 </g>
</svg>